<?xml version="1.0" encoding="UTF-8"?>
<svg version="1.1" xmlns="http://www.w3.org/2000/svg" width="1280" height="800">
<path d="M0 0 C422.4 0 844.8 0 1280 0 C1280 264 1280 528 1280 800 C857.6 800 435.2 800 0 800 C0 536 0 272 0 0 Z " fill="#000000" transform="translate(0,0)"/>
<path d="M0 0 C26.73 0 53.46 0 81 0 C82.32 4.95 83.64 9.9 85 15 C85.86625 17.59875 85.86625 17.59875 86.75 20.25 C88 24 88 24 88 27 C88.66 27 89.32 27 90 27 C90.50588147 28.91512272 91.00448391 30.83216922 91.5 32.75 C91.7784375 33.81734375 92.056875 34.8846875 92.34375 35.984375 C93 39 93 39 93 43 C93.66 43 94.32 43 95 43 C95.67076489 45.76989964 96.33676317 48.54079742 97 51.3125 C97.19078125 52.09818359 97.3815625 52.88386719 97.578125 53.69335938 C97.75859375 54.45068359 97.9390625 55.20800781 98.125 55.98828125 C98.29257812 56.68477783 98.46015625 57.38127441 98.6328125 58.09887695 C99 60 99 60 99 63 C99.66 63 100.32 63 101 63 C103.08984375 69.6875 105.1796875 76.375 107.26953125 83.0625 C107.57503906 84.03956909 107.57503906 84.03956909 107.88671875 85.03637695 C108.29772662 86.35235477 108.70787416 87.66860157 109.1171875 88.98510742 C110.17664505 92.3887814 111.25191516 95.78612595 112.35546875 99.17578125 C114.79159584 106.71125161 116.8837058 114.13595729 118 122 C118.66 122 119.32 122 120 122 C120.67250524 124.58193977 121.33817901 127.16532071 122 129.75 C122.19078125 130.47960937 122.3815625 131.20921875 122.578125 131.9609375 C123.46515964 135.44571646 124 138.38123722 124 142 C124.66 142 125.32 142 126 142 C126.25394531 143.134375 126.50789062 144.26875 126.76953125 145.4375 C127.11689722 146.95839966 127.46456993 148.47922929 127.8125 150 C127.97814453 150.74378906 128.14378906 151.48757813 128.31445312 152.25390625 C129.19219682 156.06298267 130.20110424 159.67324676 131.63671875 163.3125 C133 167 133 167 133 171 C133.66 171 134.32 171 135 171 C135.18175781 171.68964844 135.36351562 172.37929688 135.55078125 173.08984375 C136.77485661 177.66600241 138.02658554 182.20513738 139.5625 186.6875 C141.40546162 192.09998728 143 197.23120602 143 203 C143.66 203 144.32 203 145 203 C145.67250524 205.58193977 146.33817901 208.16532071 147 210.75 C147.19078125 211.47960937 147.3815625 212.20921875 147.578125 212.9609375 C148.46515964 216.44571646 149 219.38123722 149 223 C149.66 223 150.32 223 151 223 C151.27263672 224.17755859 151.27263672 224.17755859 151.55078125 225.37890625 C151.92783203 226.95478516 151.92783203 226.95478516 152.3125 228.5625 C152.55613281 229.59503906 152.79976562 230.62757813 153.05078125 231.69140625 C153.94280079 235.06983457 153.94280079 235.06983457 155.48046875 238.4140625 C157.06527262 242.15403667 158.08859457 245.87119696 159 249.8125 C160.31375697 255.30321637 161.74510438 260.70694493 163.484375 266.08203125 C164 268 164 268 164 271 C164.66 271 165.32 271 166 271 C166.33872513 272.41538717 166.67074624 273.83237963 167 275.25 C167.185625 276.03890625 167.37125 276.8278125 167.5625 277.640625 C168 280 168 280 168 284 C168.66 284 169.32 284 170 284 C170.50806447 285.72681437 171.00610467 287.45657979 171.5 289.1875 C171.7784375 290.15042969 172.056875 291.11335938 172.34375 292.10546875 C172.96677608 294.85345876 173.12302812 297.19598416 173 300 C173.66 300 174.32 300 175 300 C175.99 304.29 176.98 308.58 178 313 C182.13803715 310.24130857 182.19290821 306.97745921 183.1875 302.375 C185.75768822 291.30091636 189.30288884 280.64026598 193.00683594 269.90161133 C194.40351723 265.82109088 195.75468527 261.72578902 197.10473633 257.62963867 C197.88787283 255.32934872 198.72702248 253.06986642 199.625 250.8125 C201.2297658 246.64712429 202.13985032 242.37158426 203 238 C203.66 238 204.32 238 205 238 C205.1546875 236.2675 205.1546875 236.2675 205.3125 234.5 C205.86035113 229.98828481 207.2774879 226.19394251 209 222 C209.66 222 210.32 222 211 222 C211.12375 220.7625 211.2475 219.525 211.375 218.25 C211.69733715 215.02662845 212.55619176 212.87688185 214 210 C214.52005955 208.09402259 214.99598834 206.17568929 215.4375 204.25 C216.29246366 200.68333344 217.18835281 197.27566728 218.5625 193.875 C220.36044793 189.38959305 221.17340945 184.74560223 222 180 C222.66 180 223.32 180 224 180 C224.07476563 179.3915625 224.14953125 178.783125 224.2265625 178.15625 C225.889313 167.0712467 230.24735592 156.94441376 234.75 146.75 C237.22069231 140.96651447 238.26084254 135.22216133 239 129 C239.66 129 240.32 129 241 129 C241.1546875 128.0409375 241.1546875 128.0409375 241.3125 127.0625 C241.89417608 124.47139746 242.62439516 122.12367724 243.5 119.625 C244.83809403 115.72820909 245.564746 112.09138763 246 108 C246.66 108 247.32 108 248 108 C248.1546875 106.7625 248.1546875 106.7625 248.3125 105.5 C248.94710215 102.26929815 249.92356983 99.42665412 251.125 96.37109375 C252.14348518 93.61118079 252.97580957 90.820344 253.8125 88 C255.34275865 82.92845312 257.0963439 78.00096158 259 73.0625 C261.29015413 67.09522687 263.17127824 61.11980611 264.85546875 54.94921875 C267.22295866 46.53222203 270.18963153 38.27708014 273 30 C273.66 30 274.32 30 275 30 C275.0825 29.0925 275.165 28.185 275.25 27.25 C276.04790125 21.61909687 278.1364348 16.3482243 280 11 C280.56505127 9.29250883 281.127852 7.58426977 281.6875 5.875 C282.36471562 3.80930321 283.02708494 1.94583012 284 0 C309.74 0 335.48 0 362 0 C362 1.65 362 3.3 362 5 C361.030625 5.04125 360.06125 5.0825 359.0625 5.125 C353.9649507 5.8813437 349.66236602 8.4324087 346 12 C341.27913038 19.25100201 341.4441564 25.95398293 341.51898193 34.40124512 C341.51723608 35.86833191 341.5137309 37.33541748 341.50862527 38.80249643 C341.49970419 42.82073976 341.51564914 46.83855458 341.53573751 50.85674334 C341.55303965 55.19474778 341.54716386 59.5327288 341.54412842 63.87075806 C341.5420328 71.38229581 341.55456409 78.89369439 341.57707977 86.40519714 C341.60961222 97.26549489 341.62000807 108.12572545 341.62503174 118.98606664 C341.63378243 136.60696016 341.66039191 154.22777954 341.69824219 171.84863281 C341.7349681 188.96386342 341.76327703 206.07907387 341.78027344 223.19433594 C341.78184978 224.77727791 341.78184978 224.77727791 341.78345796 226.3921985 C341.78867818 231.68639452 341.793733 236.98059069 341.79870558 242.27478695 C341.84016059 286.18324265 341.9106029 330.0916175 342 374 C342.66 374 343.32 374 344 374 C344.474375 375.093125 344.94875 376.18625 345.4375 377.3125 C347.2850435 380.5736444 348.82113648 381.6618393 352.375 382.8125 C353.9125066 383.22419598 355.45413912 383.62087695 357 384 C359 384.66666667 361 385.33333333 363 386 C363 387.98 363 389.96 363 392 C329.34 392 295.68 392 261 392 C261 390.02 261 388.04 261 386 C261.70125 385.93683594 262.4025 385.87367188 263.125 385.80859375 C270.55094793 384.85008145 275.14372301 382.78778792 280 377 C281.53134378 374.28173208 281.53134378 374.28173208 282 372 C282.66 372 283.32 372 284 372 C284 260.46 284 148.92 284 34 C283.34 34 282.68 34 282 34 C281.7534668 34.95398682 281.7534668 34.95398682 281.50195312 35.92724609 C279.46946492 43.6014038 277.04256685 51.10638646 274.5 58.625 C274.10941406 59.78773438 273.71882813 60.95046875 273.31640625 62.1484375 C271.95590411 66.1978782 270.59139915 70.24596388 269.2265625 74.29394531 C266.7513881 81.67427571 264.38333554 89.08964366 262 96.5 C257.08564631 111.77989298 257.08564631 111.77989298 254.65722656 119.01904297 C253.52304069 122.43761065 252.44722777 125.87409056 251.375 129.3125 C251.1584375 130.00150391 250.941875 130.69050781 250.71875 131.40039062 C249.72480956 134.58161357 248.75151081 137.75180329 248 141 C247.34 141 246.68 141 246 141 C245.87496094 141.85464844 245.74992188 142.70929688 245.62109375 143.58984375 C244.99555903 147.02438343 244.10444852 150.23219663 243.0625 153.5625 C242.55396484 155.20412109 242.55396484 155.20412109 242.03515625 156.87890625 C241.12022329 159.63751544 240.07951673 162.30352473 239 165 C238.63128912 166.65919896 238.28718326 168.3247643 238 170 C237.34 170 236.68 170 236 170 C236.04382813 170.87398437 236.08765625 171.74796875 236.1328125 172.6484375 C235.99210655 176.19919345 235.2671176 178.3767256 233.875 181.625 C230.84656301 189.1054982 228.59572738 196.75556572 226.33203125 204.49609375 C223.55343807 213.96531143 223.55343807 213.96531143 221.5625 217.6875 C219.76933512 221.48900955 218.76704609 225.24990115 217.74609375 229.31640625 C217.00681968 231.97547057 216.02608769 234.44111465 215 237 C214.62406934 238.9924325 214.28020455 240.9918674 214 243 C213.34 243 212.68 243 212 243 C211.85304688 243.87398438 211.85304688 243.87398438 211.703125 244.765625 C210.42768684 251.75854458 208.34507863 258.29977534 206 265 C204.19703035 270.30188335 202.4930529 275.6020395 201 281 C200.34 281 199.68 281 199 281 C198.896875 282.134375 198.79375 283.26875 198.6875 284.4375 C198.19154697 288.44763447 197.10477159 292.02826818 195.76171875 295.828125 C194.24932839 300.14037649 193.06610174 304.55790941 192 309 C191.34 309 190.68 309 190 309 C189.86335937 309.6909375 189.72671875 310.381875 189.5859375 311.09375 C188.95278199 314.23420132 188.30525484 317.36936483 187.625 320.5 C187.39039063 321.6034375 187.15578125 322.706875 186.9140625 323.84375 C186 327 186 327 184.5859375 329.33203125 C182.3579493 333.08010008 181.25618654 337.02945352 180 341.1875 C179.73727295 342.03812012 179.4745459 342.88874023 179.20385742 343.76513672 C177.65435841 348.79535253 176.13773628 353.83560485 174.64453125 358.8828125 C173.74504354 361.83749334 172.75088635 364.75796048 171.76171875 367.68359375 C170.42046615 371.76237731 169.21236672 375.88139248 168 380 C167.34 380 166.68 380 166 380 C165.92652344 380.92232422 165.92652344 380.92232422 165.8515625 381.86328125 C165.77679687 382.67152344 165.70203125 383.47976563 165.625 384.3125 C165.55539062 385.11300781 165.48578125 385.91351562 165.4140625 386.73828125 C165 389 165 389 163 392 C160.93701172 392.34057617 160.93701172 392.34057617 158.4296875 392.29296875 C157.53378906 392.28330078 156.63789062 392.27363281 155.71484375 392.26367188 C154.77769531 392.23853516 153.84054687 392.21339844 152.875 392.1875 C151.93011719 392.17396484 150.98523438 392.16042969 150.01171875 392.14648438 C147.67391221 392.11106306 145.33723763 392.06167271 143 392 C141.27150029 386.95396416 139.63709133 381.93705668 138.375 376.75 C138.13523437 375.77546875 137.89546875 374.8009375 137.6484375 373.796875 C137.04770533 371.20576518 136.50509728 368.61125764 136 366 C135.34 366 134.68 366 134 366 C127.20689655 344.62068966 127.20689655 344.62068966 126 334 C125.34 334 124.68 334 124 334 C120.55580866 323.62642369 120.55580866 323.62642369 121 318 C120.34 318 119.68 318 119 318 C118.56300781 316.39898437 118.56300781 316.39898437 118.1171875 314.765625 C113.67224774 298.56821293 108.83303718 282.50839383 103.75 266.5 C103.40864014 265.41904053 103.06728027 264.33808105 102.71557617 263.22436523 C102.39177979 262.21188721 102.0679834 261.19940918 101.734375 260.15625 C101.44788086 259.25712891 101.16138672 258.35800781 100.86621094 257.43164062 C100.0617329 255.17329755 99.07862082 253.13586053 98 251 C97.49715538 249.01072457 97.04348259 247.00871645 96.625 245 C95.38339445 239.35228656 93.73806813 233.99234537 91.76953125 228.55859375 C91 226 91 226 91 222 C90.34 222 89.68 222 89 222 C88.78085937 221.04222656 88.56171875 220.08445312 88.3359375 219.09765625 C86.07508392 209.50213053 83.12897013 200.3319751 79.75244141 191.07714844 C72 169.6761843 72 169.6761843 72 161 C71.34 161 70.68 161 70 161 C69.63648438 159.44152344 69.63648438 159.44152344 69.265625 157.8515625 C67.5943184 150.84033023 65.84199011 144.1249239 63.00390625 137.48046875 C59.13538431 127.92205851 55 116.37007887 55 106 C54.34 106 53.68 106 53 106 C47.97438953 90.36689873 47.97438953 90.36689873 46.8125 84.8125 C46.12932746 81.60684422 45.2332488 79.00604396 44 76 C43.56572769 74.19609963 43.13257795 72.39191618 42.70703125 70.5859375 C41.5678816 66.41954485 40.11937925 62.34966463 38.67651367 58.27978516 C37.52360138 54.94474393 37 52.58287178 37 49 C36.34 49 35.68 49 35 49 C34.01 44.05 34.01 44.05 33 39 C32.67 107.97 32.34 176.94 32 248 C31.01 248 30.02 248 29 248 C28.51801537 246.75108386 28.03954323 245.50081192 27.5625 244.25 C27.29566406 243.55390625 27.02882813 242.8578125 26.75390625 242.140625 C26.03853307 240.10940997 25.48634348 238.0964709 25 236 C24.34 236 23.68 236 23 236 C21.38511163 232.77022326 21.86113684 229.23726647 21.86869812 225.6890564 C21.86658241 224.81911187 21.86446669 223.94916734 21.86228687 223.05286086 C21.85626687 220.12035182 21.85728845 217.18788558 21.8581543 214.25537109 C21.85512407 212.15970791 21.85160299 210.06404539 21.84762573 207.96838379 C21.83972491 203.44596661 21.83458733 198.92355736 21.83133507 194.40113449 C21.82543407 187.24930141 21.80890167 180.09751834 21.78999329 172.94570923 C21.78365549 170.4988232 21.77732987 168.05193713 21.77101612 165.60505104 C21.76785031 164.37942868 21.7646845 163.15380633 21.76142275 161.8910439 C21.7193244 145.23547701 21.68637652 128.57993294 21.67407227 111.92431641 C21.66569326 100.69762253 21.64320635 89.47105191 21.6047166 78.24441969 C21.58494682 72.30177583 21.57255439 66.35931628 21.57755089 60.41663742 C21.58219579 54.82367965 21.56840007 49.23107099 21.54053879 43.63818359 C21.53362382 41.58715587 21.53350371 39.53609208 21.54073906 37.48506546 C21.54963177 34.68057768 21.53392651 31.87724002 21.51225281 29.07284546 C21.52069534 28.26484949 21.52913788 27.45685353 21.53783625 26.62437284 C21.44976954 20.44360934 19.93501262 14.88667294 15.4143545 10.4404701 C10.89880797 6.76500433 5.56795854 5.37798571 0 4 C0 2.68 0 1.36 0 0 Z " fill="#FAFAFA" transform="translate(561,177)"/>
<path d="M0 0 C1.20398438 -0.01224609 2.40796875 -0.02449219 3.6484375 -0.03710938 C11.77820189 -0.0502219 19.50662498 0.71173568 27.5 2.1875 C27.5 2.8475 27.5 3.5075 27.5 4.1875 C33.44 5.1775 33.44 5.1775 39.5 6.1875 C39.5 6.8475 39.5 7.5075 39.5 8.1875 C40.180625 8.290625 40.86125 8.39375 41.5625 8.5 C47.92749273 9.98967915 53.70592667 13.23815008 59.5 16.1875 C60.1721756 16.51658356 60.8443512 16.84566711 61.53689575 17.1847229 C67.10515074 20.03396048 73.20175227 23.29538996 75.28240967 29.53314209 C76.36855393 36.13425456 75.86919546 42.73340606 75.4375 49.375 C75.36214727 51.39623577 75.29372546 53.41774247 75.23242188 55.43945312 C75.06816703 60.36222869 74.81015083 65.27184795 74.5 70.1875 C72.85 70.1875 71.2 70.1875 69.5 70.1875 C66.1989629 63.11384907 64.3751259 55.74107322 62.5 48.1875 C61.84 48.1875 61.18 48.1875 60.5 48.1875 C60.190625 47.23875 59.88125 46.29 59.5625 45.3125 C56.34593211 37.74048373 49.32852389 31.84459672 43.5 26.1875 C42.695625 25.32125 42.695625 25.32125 41.875 24.4375 C40.40383382 22.93090914 40.40383382 22.93090914 37.5 22.1875 C36.7265625 21.32125 36.7265625 21.32125 35.9375 20.4375 C23.37091488 8.83757528 4.24316191 9.74022403 -11.71264648 10.02636719 C-13.52325437 9.99716724 -13.52325437 9.99716724 -14.5 11.1875 C-15.675625 11.208125 -16.85125 11.22875 -18.0625 11.25 C-28.58894173 12.31276575 -40.55524538 19.37728964 -47.5 27.1875 C-47.83 27.8475 -48.16 28.5075 -48.5 29.1875 C-49.16 29.1875 -49.82 29.1875 -50.5 29.1875 C-51.57525194 31.83978812 -52.59456151 34.47118454 -53.5 37.1875 C-54.16 37.1875 -54.82 37.1875 -55.5 37.1875 C-55.685625 38.6725 -55.685625 38.6725 -55.875 40.1875 C-56.24937185 42.87452374 -56.7921411 45.25493862 -57.515625 47.8984375 C-58.61268433 52.23257325 -58.883293 56.35330331 -58.875 60.8125 C-58.87556396 61.59085205 -58.87612793 62.3692041 -58.87670898 63.17114258 C-58.75697854 69.56919724 -57.54117441 75.00211704 -55.47265625 81.07421875 C-54.42172383 84.43804663 -53.91754228 87.69333043 -53.5 91.1875 C-52.84 91.1875 -52.18 91.1875 -51.5 91.1875 C-49.73537317 94.27559695 -49.5 95.42062136 -49.5 99.1875 C-48.84 99.1875 -48.18 99.1875 -47.5 99.1875 C-46.35811936 101.02142951 -45.22183723 102.85901508 -44.109375 104.7109375 C-40.98394076 109.52046495 -37.20705842 113.82113253 -33.5 118.1875 C-32.81421875 119.00992188 -32.1284375 119.83234375 -31.421875 120.6796875 C-27.20303699 125.61273825 -22.81374618 129.48260661 -17.5 133.1875 C-15.7925002 134.46812485 -14.10628069 135.78200439 -12.5 137.1875 C-12.5 137.8475 -12.5 138.5075 -12.5 139.1875 C-11.778125 139.455625 -11.05625 139.72375 -10.3125 140 C-7.50233617 141.18651362 -5.01583443 142.46235639 -2.5 144.1875 C-2.5 144.8475 -2.5 145.5075 -2.5 146.1875 C-1.84 146.1875 -1.18 146.1875 -0.5 146.1875 C-0.5 146.8475 -0.5 147.5075 -0.5 148.1875 C0.29664063 148.55875 0.29664063 148.55875 1.109375 148.9375 C4.11841857 150.51085612 6.91230833 152.32312287 9.75 154.1875 C10.82765625 154.88875 11.9053125 155.59 13.015625 156.3125 C13.83546875 156.93125 14.6553125 157.55 15.5 158.1875 C15.5 158.8475 15.5 159.5075 15.5 160.1875 C16.2734375 160.55875 16.2734375 160.55875 17.0625 160.9375 C21.3454728 163.13389631 25.49307481 165.51621654 29.5 168.1875 C29.5 168.8475 29.5 169.5075 29.5 170.1875 C30.04527344 170.435 30.59054687 170.6825 31.15234375 170.9375 C33.99525318 172.45119553 36.47407215 174.27171122 39.0625 176.1875 C41.84837662 178.24383227 44.61859376 180.2665625 47.5 182.1875 C47.5 182.8475 47.5 183.5075 47.5 184.1875 C49.15 184.8475 50.8 185.5075 52.5 186.1875 C52.5 186.8475 52.5 187.5075 52.5 188.1875 C53.098125 188.455625 53.69625 188.72375 54.3125 189 C56.48726664 190.18058761 57.76816512 191.45566512 59.5 193.1875 C60.49 193.5175 61.48 193.8475 62.5 194.1875 C64.1484375 195.89453125 64.1484375 195.89453125 65.875 198 C67.92981786 200.43630304 69.74184741 202.37987862 72.25 204.375 C74.78701514 206.41870664 75.84169525 208.40154803 77.5 211.1875 C79.01603259 212.77153406 80.58218067 214.27308917 82.1953125 215.7578125 C83.5 217.1875 83.5 217.1875 84.5 220.1875 C85.7065625 221.3321875 85.7065625 221.3321875 86.9375 222.5 C89.66491051 225.36045492 90.53252833 227.40556528 91.5 231.1875 C92.16 231.1875 92.82 231.1875 93.5 231.1875 C94.34114171 232.62044498 95.17265687 234.05904405 96 235.5 C96.4640625 236.30050781 96.928125 237.10101563 97.40625 237.92578125 C98.5 240.1875 98.5 240.1875 98.5 243.1875 C99.16 243.1875 99.82 243.1875 100.5 243.1875 C100.83 245.1675 101.16 247.1475 101.5 249.1875 C102.16 249.1875 102.82 249.1875 103.5 249.1875 C104.09748047 250.90646484 104.09748047 250.90646484 104.70703125 252.66015625 C105.24205938 254.19014898 105.77722285 255.72009438 106.3125 257.25 C106.57353516 258.00216797 106.83457031 258.75433594 107.10351562 259.52929688 C108.35243109 263.09101875 109.6449857 266.58534331 111.1875 270.03125 C112.56825951 273.35164787 112.76020664 275.63134253 112.5 279.1875 C113.16 279.1875 113.82 279.1875 114.5 279.1875 C114.5 281.8275 114.5 284.4675 114.5 287.1875 C115.16 287.1875 115.82 287.1875 116.5 287.1875 C117.29485692 296.66965423 117.66073137 306.04583131 117.625 315.5625 C117.62306641 316.82022217 117.62113281 318.07794434 117.61914062 319.3737793 C117.57748825 328.34581726 117.2882695 337.24908692 116.5 346.1875 C115.84 346.1875 115.18 346.1875 114.5 346.1875 C114.396875 347.074375 114.29375 347.96125 114.1875 348.875 C113.36580675 354.72352255 111.87205912 360.44901376 110.5 366.1875 C109.84 366.1875 109.18 366.1875 108.5 366.1875 C108.46261719 366.79078125 108.42523437 367.3940625 108.38671875 368.015625 C108.00296496 372.68086713 107.70294922 375.60019687 104.5 379.1875 C104.2009375 379.94289063 103.901875 380.69828125 103.59375 381.4765625 C102.45216524 384.30606188 101.04810531 386.72445118 99.4375 389.3125 C97.77320598 391.99001948 96.50009199 394.18722402 95.5 397.1875 C94.84 397.1875 94.18 397.1875 93.5 397.1875 C93.17 398.5075 92.84 399.8275 92.5 401.1875 C91.84 401.1875 91.18 401.1875 90.5 401.1875 C90.24331543 401.93241699 89.98663086 402.67733398 89.72216797 403.44482422 C88.44465782 406.31169377 87.16659925 407.88174981 84.9453125 410.0703125 C84.24792969 410.76253906 83.55054688 411.45476562 82.83203125 412.16796875 C82.10371094 412.87566406 81.37539063 413.58335937 80.625 414.3125 C79.90441406 415.02792969 79.18382812 415.74335937 78.44140625 416.48046875 C69.6041764 425.1875 69.6041764 425.1875 66.5 425.1875 C66.5 425.8475 66.5 426.5075 66.5 427.1875 C64.0664433 428.5285005 61.62864699 429.86044856 59.1875 431.1875 C58.49720703 431.5690625 57.80691406 431.950625 57.09570312 432.34375 C51.83984375 435.1875 51.83984375 435.1875 48.5 435.1875 C48.5 435.8475 48.5 436.5075 48.5 437.1875 C25.53531038 446.21686682 3.04113355 448.72171763 -21.5 447.1875 C-22.16 446.8575 -22.82 446.5275 -23.5 446.1875 C-25.33091859 446.03106075 -27.16509584 445.91181182 -29 445.8125 C-34.01237792 445.43477296 -38.40329152 444.52464163 -43.1640625 442.953125 C-46.56656144 441.83792468 -50.02006277 441.02526267 -53.5 440.1875 C-53.5 439.5275 -53.5 438.8675 -53.5 438.1875 C-54.16386719 438.10628906 -54.82773437 438.02507812 -55.51171875 437.94140625 C-59.48331482 436.93942188 -62.74584559 435.10116546 -66.3125 433.125 C-67.00537109 432.74794922 -67.69824219 432.37089844 -68.41210938 431.98242188 C-70.11128985 431.05666148 -71.80609425 430.12287688 -73.5 429.1875 C-73.5 428.5275 -73.5 427.8675 -73.5 427.1875 C-74.37914062 426.9503125 -75.25828125 426.713125 -76.1640625 426.46875 C-79.85429208 425.05142529 -81.98498833 423.36054383 -84.875 420.6875 C-85.74898438 419.8934375 -86.62296875 419.099375 -87.5234375 418.28125 C-89.5 416.1875 -89.5 416.1875 -89.5 414.1875 C-90.16 414.1875 -90.82 414.1875 -91.5 414.1875 C-93.19140625 412.54296875 -93.19140625 412.54296875 -95.0625 410.375 C-95.99255859 409.31345703 -95.99255859 409.31345703 -96.94140625 408.23046875 C-98.5 406.1875 -98.5 406.1875 -99.5 403.1875 C-100.16 403.1875 -100.82 403.1875 -101.5 403.1875 C-102.16 401.2075 -102.82 399.2275 -103.5 397.1875 C-104.16 397.1875 -104.82 397.1875 -105.5 397.1875 C-105.5 396.5275 -105.5 395.8675 -105.5 395.1875 C-106.16 395.1875 -106.82 395.1875 -107.5 395.1875 C-108.34080019 392.77320231 -109.17281402 390.35646007 -110 387.9375 C-110.23847656 387.25558594 -110.47695313 386.57367187 -110.72265625 385.87109375 C-111.89421287 382.42336997 -112.5 379.87047096 -112.5 376.1875 C-113.16 376.1875 -113.82 376.1875 -114.5 376.1875 C-116.8479743 368.85008031 -116.69355213 361.84356218 -116.5 354.1875 C-117.16 354.1875 -117.82 354.1875 -118.5 354.1875 C-119.03381985 316.77083474 -119.03381985 316.77083474 -114.27734375 304.39453125 C-113.32049958 301.67786312 -112.74483219 298.93700706 -112.125 296.125 C-110.86336035 290.91155787 -109.11573389 286.24475915 -105.5 282.1875 C-104.84 282.1875 -104.18 282.1875 -103.5 282.1875 C-103.22027344 281.44886719 -102.94054687 280.71023438 -102.65234375 279.94921875 C-98.88731589 270.92591469 -92.19859785 264.04866816 -84.5 258.1875 C-82.1640625 257.40625 -82.1640625 257.40625 -80.5 257.1875 C-80.5 256.5275 -80.5 255.8675 -80.5 255.1875 C-79.21086513 254.51595067 -77.91859796 253.85041141 -76.625 253.1875 C-75.90570313 252.81625 -75.18640625 252.445 -74.4453125 252.0625 C-72.5 251.1875 -72.5 251.1875 -70.5 251.1875 C-70.5 250.5275 -70.5 249.8675 -70.5 249.1875 C-52.09127458 240.65451434 -27.74624825 238.81592045 -8.3125 245.4375 C-7.02780854 245.98964399 -5.75757573 246.57610943 -4.5 247.1875 C-3.66210938 247.58710938 -2.82421875 247.98671875 -1.9609375 248.3984375 C16.43515029 257.77785127 29.01451866 271.91013118 35.87036133 291.22338867 C38.13105731 298.27546279 38.85625935 304.98855916 38.8125 312.375 C38.81056641 313.73951294 38.81056641 313.73951294 38.80859375 315.1315918 C38.70054274 322.78497973 37.58485452 329.80364025 35.5 337.1875 C34.84 337.1875 34.18 337.1875 33.5 337.1875 C33.56380859 338.29158203 33.56380859 338.29158203 33.62890625 339.41796875 C33.29489095 346.59423684 27.62980773 352.52607646 22.953125 357.55859375 C21.41461117 359.14019844 21.41461117 359.14019844 20.5 361.1875 C19.84 361.1875 19.18 361.1875 18.5 361.1875 C18.5 361.8475 18.5 362.5075 18.5 363.1875 C12.12013079 368.60569775 4.14714897 375.1875 -4.5 375.1875 C-4.375 373.5 -4.375 373.5 -3.5 371.1875 C-2.08740841 369.97201421 -0.66717817 368.76294461 0.80859375 367.625 C3.27178162 365.53157474 5.19946762 363.06908518 7.203125 360.54296875 C7.63109375 360.09566406 8.0590625 359.64835937 8.5 359.1875 C9.16 359.1875 9.82 359.1875 10.5 359.1875 C10.5825 358.506875 10.665 357.82625 10.75 357.125 C11.52244863 354.0995762 12.8262269 351.84073591 14.37890625 349.15625 C14.74886719 348.5065625 15.11882812 347.856875 15.5 347.1875 C15.88027344 346.5378125 16.26054687 345.888125 16.65234375 345.21875 C21.48753743 335.44512008 21.20289131 321.48579166 18 311.1875 C17.7215625 310.48625 17.443125 309.785 17.15625 309.0625 C16.5 307.1875 16.5 307.1875 16.5 303.1875 C15.84 303.1875 15.18 303.1875 14.5 303.1875 C14.190625 302.23875 13.88125 301.29 13.5625 300.3125 C11.13833657 294.66374182 6.75581189 290.5130793 2.5 286.1875 C1.85804688 285.53265625 1.21609375 284.8778125 0.5546875 284.203125 C-10.4232356 273.82232742 -24.80122506 269.6574349 -39.64355469 269.765625 C-51.72073492 270.1723001 -64.81969325 271.82656775 -74.8203125 279.015625 C-76.5 280.1875 -76.5 280.1875 -78.5 280.1875 C-78.5 280.8475 -78.5 281.5075 -78.5 282.1875 C-80.07421875 283.51953125 -80.07421875 283.51953125 -82.1875 285 C-88.63830071 289.55251229 -88.63830071 289.55251229 -92.5 296.1875 C-93.5 297.1875 -94.5 298.1875 -95.5 299.1875 C-96.67574711 301.28739652 -96.67574711 301.28739652 -97.5 303.1875 C-98.16 303.1875 -98.82 303.1875 -99.5 303.1875 C-99.768125 303.991875 -100.03625 304.79625 -100.3125 305.625 C-101.70833333 309.8125 -103.10416667 314 -104.5 318.1875 C-105.16 318.1875 -105.82 318.1875 -106.5 318.1875 C-106.644375 319.445625 -106.78875 320.70375 -106.9375 322 C-107.23748686 324.61417123 -107.65813297 326.66189892 -108.5 329.1875 C-108.59410346 330.97724129 -108.63071037 332.7702877 -108.6328125 334.5625 C-108.63410156 335.63113281 -108.63539063 336.69976563 -108.63671875 337.80078125 C-108.63285156 338.91839844 -108.62898438 340.03601563 -108.625 341.1875 C-108.62886719 342.27417969 -108.63273437 343.36085938 -108.63671875 344.48046875 C-108.8059713 357.6350082 -108.8059713 357.6350082 -105.5 370.1875 C-104.71154261 373.00229287 -103.99566848 375.82968482 -103.28125 378.6640625 C-102.56649425 381.39521842 -102.56649425 381.39521842 -100.5 384.1875 C-100.5 385.1775 -100.5 386.1675 -100.5 387.1875 C-99.84 387.1875 -99.18 387.1875 -98.5 387.1875 C-98.5 388.1775 -98.5 389.1675 -98.5 390.1875 C-97.84 390.1875 -97.18 390.1875 -96.5 390.1875 C-96.17 391.8375 -95.84 393.4875 -95.5 395.1875 C-94.84 395.1875 -94.18 395.1875 -93.5 395.1875 C-91.5 398.1875 -91.5 398.1875 -91.5 401.1875 C-90.6646875 401.496875 -90.6646875 401.496875 -89.8125 401.8125 C-87.29192454 403.31122054 -85.97494798 405.07111834 -84.17578125 407.34375 C-80.43075563 411.46415115 -75.87719971 414.77037873 -71.5 418.1875 C-70.84386719 418.70957031 -70.18773437 419.23164062 -69.51171875 419.76953125 C-65.38872514 422.90679765 -61.36362611 424.5662913 -56.5 426.1875 C-56.5 426.8475 -56.5 427.5075 -56.5 428.1875 C-55.984375 428.290625 -55.46875 428.39375 -54.9375 428.5 C-52.5 429.1875 -52.5 429.1875 -49.5625 430.5625 C-44.14924843 432.97234664 -38.26991748 433.96410396 -32.5 435.1875 C-32.5 435.8475 -32.5 436.5075 -32.5 437.1875 C-29.53 437.1875 -26.56 437.1875 -23.5 437.1875 C-23.5 437.8475 -23.5 438.5075 -23.5 439.1875 C-14.59 439.1875 -5.68 439.1875 3.5 439.1875 C3.5 438.5275 3.5 437.8675 3.5 437.1875 C4.40878906 437.11273437 5.31757813 437.03796875 6.25390625 436.9609375 C16.25969075 435.91417851 24.30467542 433.26446319 33.5 429.1875 C35.16358964 428.51319167 36.82902011 427.84328079 38.5 427.1875 C38.5 426.5275 38.5 425.8675 38.5 425.1875 C40.15234375 423.99609375 40.15234375 423.99609375 42.4375 422.625 C48.75734588 418.56509901 54.32237582 413.45393627 58.5 407.1875 C59.16 407.1875 59.82 407.1875 60.5 407.1875 C60.5 406.5275 60.5 405.8675 60.5 405.1875 C61.16 405.1875 61.82 405.1875 62.5 405.1875 C62.61214844 404.63578125 62.72429687 404.0840625 62.83984375 403.515625 C63.61360773 400.78684789 64.76817694 398.45977057 66.0625 395.9375 C66.51753906 395.04546875 66.97257813 394.1534375 67.44140625 393.234375 C67.96541016 392.22117187 67.96541016 392.22117187 68.5 391.1875 C69.16 391.1875 69.82 391.1875 70.5 391.1875 C72.92199791 384.26750598 74.77994728 377.31085968 76.5 370.1875 C76.85449219 369.05699219 77.20898438 367.92648437 77.57421875 366.76171875 C79.01817327 360.9701085 78.79766615 355.04179509 78.76074219 349.10839844 C78.75013167 347.08757741 78.76062272 345.06766705 78.7734375 343.046875 C78.75624322 334.26060038 77.97451468 325.84446048 76.5 317.1875 C76.3134082 316.06585449 76.12681641 314.94420898 75.93457031 313.78857422 C75.71945801 312.50104248 75.71945801 312.50104248 75.5 311.1875 C74.84 311.1875 74.18 311.1875 73.5 311.1875 C73.35304688 310.52105469 73.20609375 309.85460937 73.0546875 309.16796875 C71.46003958 302.61524884 69.13157295 297.20989987 65.70703125 291.40234375 C64.5 289.1875 64.5 289.1875 64.5 287.1875 C63.84 287.1875 63.18 287.1875 62.5 287.1875 C61.43341956 285.6482305 60.44869094 284.052099 59.5 282.4375 C53.47974158 272.72498329 46.30468807 264.43640824 37.5 257.1875 C35.91206054 255.77599826 34.32881214 254.35920359 32.75 252.9375 C30.62762467 251.02888909 28.56222605 249.23170195 26.234375 247.578125 C25.66203125 247.11921875 25.0896875 246.6603125 24.5 246.1875 C24.5 245.5275 24.5 244.8675 24.5 244.1875 C23.84 244.1875 23.18 244.1875 22.5 244.1875 C22.5 243.5275 22.5 242.8675 22.5 242.1875 C21.95214844 242.10371094 21.40429688 242.01992188 20.83984375 241.93359375 C17.71568752 240.93741038 15.65726247 239.25328337 13.0625 237.25 C12.54824463 236.85611084 12.03398926 236.46222168 11.50415039 236.05639648 C9.83124569 234.77293775 8.16553987 233.48049738 6.5 232.1875 C4.7216031 230.8163472 2.94190674 229.44689773 1.16186523 228.07788086 C0.03238272 227.20810097 -1.09576311 226.33658187 -2.22241211 225.46313477 C-4.60601059 223.61874119 -6.99056508 221.86045662 -9.5 220.1875 C-9.5 219.5275 -9.5 218.8675 -9.5 218.1875 C-10.0775 218.105 -10.655 218.0225 -11.25 217.9375 C-14.13869579 216.9746014 -15.39119161 215.36021168 -17.5 213.1875 C-19.15848177 212.17398336 -20.82665961 211.17629205 -22.5 210.1875 C-30.5627239 204.73717382 -37.95742343 197.94249922 -44.671875 190.9140625 C-46.48558125 188.95814707 -46.48558125 188.95814707 -49.5 188.1875 C-49.5 187.5275 -49.5 186.8675 -49.5 186.1875 C-50.16 186.1875 -50.82 186.1875 -51.5 186.1875 C-51.5 185.5275 -51.5 184.8675 -51.5 184.1875 C-52.16 184.1875 -52.82 184.1875 -53.5 184.1875 C-53.933125 183.445 -54.36625 182.7025 -54.8125 181.9375 C-56.3591689 179.06863338 -56.3591689 179.06863338 -59 177.1875 C-61.73519121 174.99934703 -62.75515837 173.2074182 -64.5 170.1875 C-66.32644524 167.82338212 -68.19139468 165.49520221 -70.07421875 163.17578125 C-71.5 161.1875 -71.5 161.1875 -71.5 159.1875 C-72.16 159.1875 -72.82 159.1875 -73.5 159.1875 C-79.359375 147.46875 -79.359375 147.46875 -80.42822266 145.32421875 C-81.13936091 143.90647799 -81.85773529 142.49234247 -82.58349609 141.08203125 C-85.54702667 135.29011482 -87.59824089 129.40836535 -89.5 123.1875 C-89.71785156 122.48625 -89.93570312 121.785 -90.16015625 121.0625 C-93.20777698 110.22651517 -92.63362053 98.58061072 -92.5625 87.4375 C-92.55746857 86.04687663 -92.5529086 84.65625148 -92.54882812 83.265625 C-92.53716347 79.90620295 -92.52079614 76.54687581 -92.5 73.1875 C-91.84 73.1875 -91.18 73.1875 -90.5 73.1875 C-90.520625 72.218125 -90.54125 71.24875 -90.5625 70.25 C-90.5 67.1875 -90.5 67.1875 -89.5 66.1875 C-89.17495116 64.50611101 -88.89029638 62.81684619 -88.625 61.125 C-87.76913907 56.15841311 -86.4289438 51.83450097 -84.5 47.1875 C-83.84 47.1875 -83.18 47.1875 -82.5 47.1875 C-82.3865625 46.62289062 -82.273125 46.05828125 -82.15625 45.4765625 C-78.10504961 31.34558971 -64.32894417 20.02714904 -52.23828125 12.84375 C-48.43304643 10.87011151 -44.4704261 9.35161226 -40.4375 7.91015625 C-38.56982035 7.21354186 -36.75110027 6.38975626 -34.9375 5.5625 C-31.386766 4.1422064 -28.27855176 3.66840659 -24.5 3.1875 C-22.4921136 2.54497635 -20.49117408 1.88008229 -18.5 1.1875 C-12.39224288 -0.28161052 -6.24702238 0.00326045 0 0 Z " fill="#F9F9F9" transform="translate(475.5,175.8125)"/>
<path d="M0 0 C0.66 0 1.32 0 2 0 C2.51046875 1.17755859 2.51046875 1.17755859 3.03125 2.37890625 C8.05320028 13.26425062 13.78827324 18.82155554 25 23 C25 23.66 25 24.32 25 25 C24.21496094 25.3403125 23.42992187 25.680625 22.62109375 26.03125 C11.73574938 31.05320028 6.17844446 36.78827324 2 48 C1.34 48 0.68 48 0 48 C-0.3403125 47.21496094 -0.680625 46.42992187 -1.03125 45.62109375 C-6.05320028 34.73574938 -11.78827324 29.17844446 -23 25 C-23 24.34 -23 23.68 -23 23 C-22.21496094 22.6596875 -21.42992187 22.319375 -20.62109375 21.96875 C-9.73574938 16.94679972 -4.17844446 11.21172676 0 0 Z " fill="#7D7D7D" transform="translate(1223,720)"/>
<path d="M0 0 C0.66 0.33 1.32 0.66 2 1 C2.625 4.0625 2.625 4.0625 3 7 C2.34 7 1.68 7 1 7 C1 74.32 1 141.64 1 211 C-0.32 210.67 -1.64 210.34 -3 210 C-2.01 210 -1.02 210 0 210 C0 140.7 0 71.4 0 0 Z " fill="#131515" transform="translate(593,215)"/>
<path d="M0 0 C0.99 0.495 0.99 0.495 2 1 C2.625 4.0625 2.625 4.0625 3 7 C2.34 7 1.68 7 1 7 C1 19.21 1 31.42 1 44 C0.67 44 0.34 44 0 44 C0 29.48 0 14.96 0 0 Z " fill="#1B1B1B" transform="translate(593,215)"/>
<path d="M0 0 C7.75 -0.125 7.75 -0.125 10 1 C12.10374996 1.15441209 14.21195119 1.24992639 16.3203125 1.31640625 C17.57714844 1.35830078 18.83398438 1.40019531 20.12890625 1.44335938 C22.10697266 1.50233398 22.10697266 1.50233398 24.125 1.5625 C25.46485751 1.60569512 26.80470156 1.64930973 28.14453125 1.69335938 C31.42957815 1.79970981 34.71470281 1.90173808 38 2 C38 2.33 38 2.66 38 3 C33.55258682 3.04966189 29.1053232 3.08584293 24.65771484 3.10986328 C23.14661851 3.11988339 21.63554138 3.13350321 20.12451172 3.15087891 C17.94493858 3.17530392 15.76562316 3.18652307 13.5859375 3.1953125 C11.62213135 3.21102295 11.62213135 3.21102295 9.61865234 3.22705078 C6.0584534 3.00366763 3.30765738 2.2935223 0 1 C0 0.67 0 0.34 0 0 Z " fill="#767676" transform="translate(444,621)"/>
<path d="M0 0 C0.87454834 0.00523682 1.74909668 0.01047363 2.65014648 0.01586914 C3.59438477 0.0190918 4.53862305 0.02231445 5.51147461 0.02563477 C6.50469727 0.03401367 7.49791992 0.04239258 8.52124023 0.05102539 C9.51833008 0.05553711 10.51541992 0.06004883 11.54272461 0.06469727 C14.01478872 0.07652532 16.48673541 0.0930069 18.95874023 0.11352539 C18.95874023 0.44352539 18.95874023 0.77352539 18.95874023 1.11352539 C17.87077148 1.16250977 16.78280273 1.21149414 15.66186523 1.26196289 C7.77366393 1.6525481 0.13454289 2.21131497 -7.62329102 3.80883789 C-10.09494792 4.12029062 -11.69508491 3.89011474 -14.04125977 3.11352539 C-11.14763328 1.66671215 -8.23295887 1.68110163 -5.03735352 1.39477539 C-2.67657758 1.0621416 -2.39748419 0.13333694 0 0 Z " fill="#535452" transform="translate(464.041259765625,184.886474609375)"/>
<path d="M0 0 C0 3 0 3 -1.19335938 4.53393555 C-1.73798828 5.062854 -2.28261719 5.59177246 -2.84375 6.13671875 C-3.72353516 7.00200195 -3.72353516 7.00200195 -4.62109375 7.88476562 C-5.24113281 8.47966797 -5.86117188 9.07457031 -6.5 9.6875 C-7.12003906 10.29400391 -7.74007813 10.90050781 -8.37890625 11.52539062 C-9.91264707 13.02373743 -11.45548198 14.51276493 -13 16 C-13 11.08924079 -9.30469813 8.39044878 -6 5 C-4.05397986 3.23549584 -2.07285289 1.6178364 0 0 Z " fill="#BDBCBC" transform="translate(390,435)"/>
<path d="M0 0 C0.33 0 0.66 0 1 0 C1.05849554 3.20825562 1.09376162 6.41637233 1.125 9.625 C1.15013672 10.98044922 1.15013672 10.98044922 1.17578125 12.36328125 C1.21201643 17.32750152 0.96444146 21.34411907 -1 26 C-1.33 26 -1.66 26 -2 26 C-2.125 19.375 -2.125 19.375 -1 16 C-0.77202438 13.26710707 -0.58331813 10.54957796 -0.4375 7.8125 C-0.39431641 7.06291016 -0.35113281 6.31332031 -0.30664062 5.54101562 C-0.20077315 3.69421625 -0.0999024 1.84713166 0 0 Z " fill="#626262" transform="translate(495,493)"/>
<path d="M0 0 C0 3 0 3 -2 6 C-0.68 6.33 0.64 6.66 2 7 C-1.37097383 8.49821059 -3.20442119 9 -7 9 C-6.82374165 6.62051228 -6.30280227 5.29774151 -4.59765625 3.62109375 C-3.09350908 2.37884514 -1.54870149 1.18623944 0 0 Z " fill="#ADABAA" transform="translate(478,542)"/>
<path d="M0 0 C1.08892712 2.83121051 0.96109941 4.16532751 0.25 7.1875 C-0.1625 8.115625 -0.575 9.04375 -1 10 C-1.99 10.33 -2.98 10.66 -4 11 C-5.0625 9.1875 -5.0625 9.1875 -6 7 C-5.67 6.01 -5.34 5.02 -5 4 C-5 4.66 -5 5.32 -5 6 C-3.68 6 -2.36 6 -1 6 C-0.67 4.02 -0.34 2.04 0 0 Z " fill="#5A5B5C" transform="translate(743,479)"/>
<path d="M0 0 C-1.65091778 4.29238623 -4.73754566 6.8793915 -8 10 C-8.99 9.67 -9.98 9.34 -11 9 C-9.54782324 7.49403892 -8.08807139 5.99537896 -6.625 4.5 C-5.40683594 3.24703125 -5.40683594 3.24703125 -4.1640625 1.96875 C-2 0 -2 0 0 0 Z " fill="#393D3E" transform="translate(394,460)"/>
<path d="M0 0 C1.13672994 3.41018982 0.85110129 4.16728404 -0.3125 7.4375 C-0.57675781 8.19933594 -0.84101562 8.96117187 -1.11328125 9.74609375 C-1.96253846 11.90477839 -2.92768395 13.94433735 -4 16 C-5 14 -5 14 -4.51171875 12.01171875 C-4.23972656 11.24472656 -3.96773437 10.47773438 -3.6875 9.6875 C-3.40648437 8.88828125 -3.12546875 8.0890625 -2.8359375 7.265625 C-1.93515512 4.82425219 -1.00642416 2.39993453 0 0 Z " fill="#545554" transform="translate(832,244)"/>
<path d="M0 0 C2.34621048 4.69242096 -0.52933965 11.19584285 -2 16 C-2.33 16 -2.66 16 -3 16 C-3.37952295 9.80112515 -2.8352113 5.5522888 0 0 Z " fill="#696B6A" transform="translate(387,233)"/>
<path d="M0 0 C1.47177418 3.82661288 0.57016757 6.31010622 -1 10 C-2.625 11.875 -2.625 11.875 -4 13 C-2.77443263 8.62297367 -1.46939453 4.30322683 0 0 Z " fill="#929292" transform="translate(791,335)"/>
<path d="M0 0 C0.66 0.33 1.32 0.66 2 1 C0.02 3.31 -1.96 5.62 -4 8 C-4.66 7.67 -5.32 7.34 -6 7 C-4.02 4.69 -2.04 2.38 0 0 Z " fill="#B9B8B9" transform="translate(409,199)"/>
<path d="M0 0 C0.33 0.99 0.66 1.98 1 3 C-0.62339805 4.70884005 -2.29319053 6.37446717 -4 8 C-4.66 8 -5.32 8 -6 8 C-4.55746343 4.63408134 -2.66735273 2.48952921 0 0 Z " fill="#464949" transform="translate(433,197)"/>
<path d="M0 0 C0.66 0.33 1.32 0.66 2 1 C-0.75 3.0625 -0.75 3.0625 -4 5 C-6.203125 4.62109375 -6.203125 4.62109375 -8 4 C-6.71349294 3.30289269 -5.42059335 2.61757124 -4.125 1.9375 C-3.40570313 1.55464844 -2.68640625 1.17179687 -1.9453125 0.77734375 C-1.30335938 0.52082031 -0.66140625 0.26429688 0 0 Z " fill="#595B5C" transform="translate(412,448)"/>
</svg>
